<?xml version="1.0" encoding="UTF-8" standalone="no"?>
<!DOCTYPE svg PUBLIC "-//W3C//DTD SVG 1.1//EN"
 "http://www.w3.org/Graphics/SVG/1.1/DTD/svg11.dtd">
<!-- Generated by graphviz version 2.46.0 (20210118.1747)
 -->
<!-- Pages: 1 -->
<svg width="280pt" height="293pt"
 viewBox="0.00 0.00 280.10 292.78" xmlns="http://www.w3.org/2000/svg" xmlns:xlink="http://www.w3.org/1999/xlink">
<g id="graph0" class="graph" transform="scale(1 1) rotate(0) translate(4 288.78)">
<polygon fill="white" stroke="transparent" points="-4,4 -4,-288.78 276.1,-288.78 276.1,4 -4,4"/>
<!-- 1 -->
<g id="node1" class="node">
<title>1</title>
<ellipse fill="lightcoral" stroke="black" cx="106" cy="-262.69" rx="22.2" ry="22.2"/>
<text text-anchor="middle" x="106" y="-258.99" font-family="Times New Roman,serif" font-size="14.00">∨</text>
</g>
<!-- 2 -->
<g id="node2" class="node">
<title>2</title>
<ellipse fill="lightblue" stroke="black" cx="75" cy="-182.49" rx="22.2" ry="22.2"/>
<text text-anchor="middle" x="75" y="-178.79" font-family="Times New Roman,serif" font-size="14.00">∧</text>
</g>
<!-- 1&#45;&#45;2 -->
<g id="edge1" class="edge">
<title>1&#45;&#45;2</title>
<path fill="none" stroke="black" d="M98.18,-241.95C93.48,-230.1 87.52,-215.07 82.82,-203.22"/>
</g>
<!-- 7 -->
<g id="node7" class="node">
<title>7</title>
<ellipse fill="lightblue" stroke="black" cx="137" cy="-182.49" rx="22.2" ry="22.2"/>
<text text-anchor="middle" x="137" y="-178.79" font-family="Times New Roman,serif" font-size="14.00">∧</text>
</g>
<!-- 1&#45;&#45;7 -->
<g id="edge6" class="edge">
<title>1&#45;&#45;7</title>
<path fill="none" stroke="black" d="M113.82,-241.95C118.52,-230.1 124.48,-215.07 129.18,-203.22"/>
</g>
<!-- 3 -->
<g id="node3" class="node">
<title>3</title>
<ellipse fill="none" stroke="black" cx="18" cy="-102.29" rx="18" ry="18"/>
<text text-anchor="middle" x="18" y="-98.59" font-family="Times New Roman,serif" font-size="14.00">B</text>
</g>
<!-- 2&#45;&#45;3 -->
<g id="edge2" class="edge">
<title>2&#45;&#45;3</title>
<path fill="none" stroke="black" d="M62.35,-164.14C52.05,-150.01 37.7,-130.33 28.15,-117.21"/>
</g>
<!-- 4 -->
<g id="node4" class="node">
<title>4</title>
<ellipse fill="lightcoral" stroke="black" cx="76" cy="-102.29" rx="22.2" ry="22.2"/>
<text text-anchor="middle" x="76" y="-98.59" font-family="Times New Roman,serif" font-size="14.00">∨</text>
</g>
<!-- 2&#45;&#45;4 -->
<g id="edge3" class="edge">
<title>2&#45;&#45;4</title>
<path fill="none" stroke="black" d="M75.27,-160.12C75.41,-149.09 75.59,-135.67 75.73,-124.64"/>
</g>
<!-- 5 -->
<g id="node5" class="node">
<title>5</title>
<ellipse fill="none" stroke="black" cx="19" cy="-22.1" rx="18" ry="18"/>
<text text-anchor="middle" x="19" y="-18.4" font-family="Times New Roman,serif" font-size="14.00">A</text>
</g>
<!-- 4&#45;&#45;5 -->
<g id="edge4" class="edge">
<title>4&#45;&#45;5</title>
<path fill="none" stroke="black" d="M63.35,-83.94C53.05,-69.81 38.7,-50.13 29.15,-37.02"/>
</g>
<!-- 6 -->
<g id="node6" class="node">
<title>6</title>
<ellipse fill="none" stroke="black" cx="77" cy="-22.1" rx="22.2" ry="22.2"/>
<text text-anchor="middle" x="77" y="-18.4" font-family="Times New Roman,serif" font-size="14.00">⊤</text>
</g>
<!-- 4&#45;&#45;6 -->
<g id="edge5" class="edge">
<title>4&#45;&#45;6</title>
<path fill="none" stroke="black" d="M76.27,-79.93C76.41,-68.89 76.59,-55.47 76.73,-44.44"/>
</g>
<!-- 8 -->
<g id="node8" class="node">
<title>8</title>
<ellipse fill="lightgreen" stroke="black" cx="136" cy="-102.29" rx="18" ry="18"/>
<text text-anchor="middle" x="136" y="-98.59" font-family="Times New Roman,serif" font-size="14.00">¬</text>
</g>
<!-- 7&#45;&#45;8 -->
<g id="edge7" class="edge">
<title>7&#45;&#45;8</title>
<path fill="none" stroke="black" d="M136.73,-160.12C136.57,-147.64 136.37,-132.1 136.22,-120.43"/>
</g>
<!-- 10 -->
<g id="node10" class="node">
<title>10</title>
<ellipse fill="lightcoral" stroke="black" cx="194" cy="-102.29" rx="22.2" ry="22.2"/>
<text text-anchor="middle" x="194" y="-98.59" font-family="Times New Roman,serif" font-size="14.00">∨</text>
</g>
<!-- 7&#45;&#45;10 -->
<g id="edge9" class="edge">
<title>7&#45;&#45;10</title>
<path fill="none" stroke="black" d="M149.65,-164.14C159.1,-151.18 171.95,-133.55 181.39,-120.6"/>
</g>
<!-- 9 -->
<g id="node9" class="node">
<title>9</title>
<ellipse fill="none" stroke="black" cx="136" cy="-22.1" rx="18" ry="18"/>
<text text-anchor="middle" x="136" y="-18.4" font-family="Times New Roman,serif" font-size="14.00">B</text>
</g>
<!-- 8&#45;&#45;9 -->
<g id="edge8" class="edge">
<title>8&#45;&#45;9</title>
<path fill="none" stroke="black" d="M136,-83.94C136,-70.89 136,-53.11 136,-40.13"/>
</g>
<!-- 11 -->
<g id="node11" class="node">
<title>11</title>
<ellipse fill="none" stroke="black" cx="192" cy="-22.1" rx="18" ry="18"/>
<text text-anchor="middle" x="192" y="-18.4" font-family="Times New Roman,serif" font-size="14.00">A</text>
</g>
<!-- 10&#45;&#45;11 -->
<g id="edge10" class="edge">
<title>10&#45;&#45;11</title>
<path fill="none" stroke="black" d="M193.45,-79.93C193.13,-67.45 192.74,-51.91 192.44,-40.23"/>
</g>
<!-- 12 -->
<g id="node12" class="node">
<title>12</title>
<ellipse fill="none" stroke="black" cx="250" cy="-22.1" rx="22.2" ry="22.2"/>
<text text-anchor="middle" x="250" y="-18.4" font-family="Times New Roman,serif" font-size="14.00">⊥</text>
</g>
<!-- 10&#45;&#45;12 -->
<g id="edge11" class="edge">
<title>10&#45;&#45;12</title>
<path fill="none" stroke="black" d="M206.43,-83.94C215.71,-70.98 228.33,-53.35 237.61,-40.4"/>
</g>
</g>
</svg>
