<?xml version="1.0" encoding="UTF-8" standalone="no"?>
<!DOCTYPE svg PUBLIC "-//W3C//DTD SVG 1.1//EN"
 "http://www.w3.org/Graphics/SVG/1.1/DTD/svg11.dtd">
<!-- Generated by graphviz version 2.46.0 (20210118.1747)
 -->
<!-- Pages: 1 -->
<svg width="243pt" height="293pt"
 viewBox="0.00 0.00 243.10 292.78" xmlns="http://www.w3.org/2000/svg" xmlns:xlink="http://www.w3.org/1999/xlink">
<g id="graph0" class="graph" transform="scale(1 1) rotate(0) translate(4 288.78)">
<polygon fill="white" stroke="transparent" points="-4,4 -4,-288.78 239.1,-288.78 239.1,4 -4,4"/>
<!-- 1 -->
<g id="node1" class="node">
<title>1</title>
<ellipse fill="lightcoral" stroke="black" cx="101" cy="-262.69" rx="22.2" ry="22.2"/>
<text text-anchor="middle" x="101" y="-258.99" font-family="Times New Roman,serif" font-size="14.00">∨</text>
</g>
<!-- 2 -->
<g id="node2" class="node">
<title>2</title>
<ellipse fill="lightblue" stroke="black" cx="70" cy="-182.49" rx="22.2" ry="22.2"/>
<text text-anchor="middle" x="70" y="-178.79" font-family="Times New Roman,serif" font-size="14.00">∧</text>
</g>
<!-- 1&#45;&#45;2 -->
<g id="edge1" class="edge">
<title>1&#45;&#45;2</title>
<path fill="none" stroke="black" d="M93.18,-241.95C88.48,-230.1 82.52,-215.07 77.82,-203.22"/>
</g>
<!-- 6 -->
<g id="node6" class="node">
<title>6</title>
<ellipse fill="lightblue" stroke="black" cx="132" cy="-182.49" rx="22.2" ry="22.2"/>
<text text-anchor="middle" x="132" y="-178.79" font-family="Times New Roman,serif" font-size="14.00">∧</text>
</g>
<!-- 1&#45;&#45;6 -->
<g id="edge5" class="edge">
<title>1&#45;&#45;6</title>
<path fill="none" stroke="black" d="M108.82,-241.95C113.52,-230.1 119.48,-215.07 124.18,-203.22"/>
</g>
<!-- 3 -->
<g id="node3" class="node">
<title>3</title>
<ellipse fill="none" stroke="black" cx="18" cy="-102.29" rx="18" ry="18"/>
<text text-anchor="middle" x="18" y="-98.59" font-family="Times New Roman,serif" font-size="14.00">A</text>
</g>
<!-- 2&#45;&#45;3 -->
<g id="edge2" class="edge">
<title>2&#45;&#45;3</title>
<path fill="none" stroke="black" d="M58.2,-163.75C48.97,-149.87 36.3,-130.81 27.66,-117.83"/>
</g>
<!-- 4 -->
<g id="node4" class="node">
<title>4</title>
<ellipse fill="lightgreen" stroke="black" cx="72" cy="-102.29" rx="18" ry="18"/>
<text text-anchor="middle" x="72" y="-98.59" font-family="Times New Roman,serif" font-size="14.00">¬</text>
</g>
<!-- 2&#45;&#45;4 -->
<g id="edge3" class="edge">
<title>2&#45;&#45;4</title>
<path fill="none" stroke="black" d="M70.55,-160.12C70.87,-147.64 71.26,-132.1 71.56,-120.43"/>
</g>
<!-- 5 -->
<g id="node5" class="node">
<title>5</title>
<ellipse fill="none" stroke="black" cx="72" cy="-22.1" rx="18" ry="18"/>
<text text-anchor="middle" x="72" y="-18.4" font-family="Times New Roman,serif" font-size="14.00">B</text>
</g>
<!-- 4&#45;&#45;5 -->
<g id="edge4" class="edge">
<title>4&#45;&#45;5</title>
<path fill="none" stroke="black" d="M72,-83.94C72,-70.89 72,-53.11 72,-40.13"/>
</g>
<!-- 7 -->
<g id="node7" class="node">
<title>7</title>
<ellipse fill="none" stroke="black" cx="130" cy="-102.29" rx="18" ry="18"/>
<text text-anchor="middle" x="130" y="-98.59" font-family="Times New Roman,serif" font-size="14.00">B</text>
</g>
<!-- 6&#45;&#45;7 -->
<g id="edge6" class="edge">
<title>6&#45;&#45;7</title>
<path fill="none" stroke="black" d="M131.45,-160.12C131.13,-147.64 130.74,-132.1 130.44,-120.43"/>
</g>
<!-- 8 -->
<g id="node8" class="node">
<title>8</title>
<ellipse fill="lightcoral" stroke="black" cx="188" cy="-102.29" rx="22.2" ry="22.2"/>
<text text-anchor="middle" x="188" y="-98.59" font-family="Times New Roman,serif" font-size="14.00">∨</text>
</g>
<!-- 6&#45;&#45;8 -->
<g id="edge7" class="edge">
<title>6&#45;&#45;8</title>
<path fill="none" stroke="black" d="M144.43,-164.14C153.71,-151.18 166.33,-133.55 175.61,-120.6"/>
</g>
<!-- 9 -->
<g id="node9" class="node">
<title>9</title>
<ellipse fill="none" stroke="black" cx="155" cy="-22.1" rx="18" ry="18"/>
<text text-anchor="middle" x="155" y="-18.4" font-family="Times New Roman,serif" font-size="14.00">A</text>
</g>
<!-- 8&#45;&#45;9 -->
<g id="edge8" class="edge">
<title>8&#45;&#45;9</title>
<path fill="none" stroke="black" d="M179.67,-81.56C174.1,-68.35 166.86,-51.19 161.66,-38.89"/>
</g>
<!-- 10 -->
<g id="node10" class="node">
<title>10</title>
<ellipse fill="none" stroke="black" cx="213" cy="-22.1" rx="22.2" ry="22.2"/>
<text text-anchor="middle" x="213" y="-18.4" font-family="Times New Roman,serif" font-size="14.00">⊤</text>
</g>
<!-- 8&#45;&#45;10 -->
<g id="edge9" class="edge">
<title>8&#45;&#45;10</title>
<path fill="none" stroke="black" d="M194.57,-80.75C198.24,-69.26 202.81,-54.98 206.48,-43.51"/>
</g>
</g>
</svg>
