<?xml version="1.0" encoding="UTF-8" standalone="no"?>
<!DOCTYPE svg PUBLIC "-//W3C//DTD SVG 1.1//EN"
 "http://www.w3.org/Graphics/SVG/1.1/DTD/svg11.dtd">
<!-- Generated by graphviz version 2.46.0 (20210118.1747)
 -->
<!-- Pages: 1 -->
<svg width="1700pt" height="528pt"
 viewBox="0.00 0.00 1700.00 528.17" xmlns="http://www.w3.org/2000/svg" xmlns:xlink="http://www.w3.org/1999/xlink">
<g id="graph0" class="graph" transform="scale(1 1) rotate(0) translate(4 524.17)">
<polygon fill="white" stroke="transparent" points="-4,4 -4,-524.17 1696,-524.17 1696,4 -4,4"/>
<!-- 1 -->
<g id="node1" class="node">
<title>1</title>
<ellipse fill="lightcoral" stroke="black" cx="594.5" cy="-498.07" rx="22.2" ry="22.2"/>
<text text-anchor="middle" x="594.5" y="-494.37" font-family="Times New Roman,serif" font-size="14.00">∨</text>
</g>
<!-- 2 -->
<g id="node2" class="node">
<title>2</title>
<ellipse fill="lightblue" stroke="black" cx="563.5" cy="-417.88" rx="22.2" ry="22.2"/>
<text text-anchor="middle" x="563.5" y="-414.18" font-family="Times New Roman,serif" font-size="14.00">∧</text>
</g>
<!-- 1&#45;&#45;2 -->
<g id="edge1" class="edge">
<title>1&#45;&#45;2</title>
<path fill="none" stroke="black" d="M586.68,-477.34C581.98,-465.49 576.02,-450.46 571.32,-438.6"/>
</g>
<!-- 35 -->
<g id="node35" class="node">
<title>35</title>
<ellipse fill="lightblue" stroke="black" cx="741.5" cy="-417.88" rx="22.2" ry="22.2"/>
<text text-anchor="middle" x="741.5" y="-414.18" font-family="Times New Roman,serif" font-size="14.00">∧</text>
</g>
<!-- 1&#45;&#45;35 -->
<g id="edge34" class="edge">
<title>1&#45;&#45;35</title>
<path fill="none" stroke="black" d="M613.72,-486.85C641.89,-471.87 694.1,-444.09 722.28,-429.1"/>
</g>
<!-- 3 -->
<g id="node3" class="node">
<title>3</title>
<ellipse fill="none" stroke="black" cx="503.5" cy="-337.68" rx="19.5" ry="19.5"/>
<text text-anchor="middle" x="503.5" y="-333.98" font-family="Times New Roman,serif" font-size="14.00">x1</text>
</g>
<!-- 2&#45;&#45;3 -->
<g id="edge2" class="edge">
<title>2&#45;&#45;3</title>
<path fill="none" stroke="black" d="M550.48,-399.91C539.93,-386.17 525.21,-366.98 515.07,-353.77"/>
</g>
<!-- 4 -->
<g id="node4" class="node">
<title>4</title>
<ellipse fill="lightcoral" stroke="black" cx="563.5" cy="-337.68" rx="22.2" ry="22.2"/>
<text text-anchor="middle" x="563.5" y="-333.98" font-family="Times New Roman,serif" font-size="14.00">∨</text>
</g>
<!-- 2&#45;&#45;4 -->
<g id="edge3" class="edge">
<title>2&#45;&#45;4</title>
<path fill="none" stroke="black" d="M563.5,-395.51C563.5,-384.48 563.5,-371.05 563.5,-360.02"/>
</g>
<!-- 5 -->
<g id="node5" class="node">
<title>5</title>
<ellipse fill="lightblue" stroke="black" cx="172.5" cy="-257.49" rx="22.2" ry="22.2"/>
<text text-anchor="middle" x="172.5" y="-253.79" font-family="Times New Roman,serif" font-size="14.00">∧</text>
</g>
<!-- 4&#45;&#45;5 -->
<g id="edge4" class="edge">
<title>4&#45;&#45;5</title>
<path fill="none" stroke="black" d="M546.29,-323.43C541.7,-320.43 536.58,-317.56 531.5,-315.58 410.6,-268.65 252.47,-260.27 194.78,-258.8"/>
</g>
<!-- 20 -->
<g id="node20" class="node">
<title>20</title>
<ellipse fill="lightblue" stroke="black" cx="563.5" cy="-257.49" rx="22.2" ry="22.2"/>
<text text-anchor="middle" x="563.5" y="-253.79" font-family="Times New Roman,serif" font-size="14.00">∧</text>
</g>
<!-- 4&#45;&#45;20 -->
<g id="edge19" class="edge">
<title>4&#45;&#45;20</title>
<path fill="none" stroke="black" d="M563.5,-315.32C563.5,-304.28 563.5,-290.86 563.5,-279.83"/>
</g>
<!-- 6 -->
<g id="node6" class="node">
<title>6</title>
<ellipse fill="none" stroke="black" cx="19.5" cy="-177.29" rx="19.5" ry="19.5"/>
<text text-anchor="middle" x="19.5" y="-173.59" font-family="Times New Roman,serif" font-size="14.00">x3</text>
</g>
<!-- 5&#45;&#45;6 -->
<g id="edge5" class="edge">
<title>5&#45;&#45;6</title>
<path fill="none" stroke="black" d="M152.13,-248.56C127.04,-238.48 83.46,-219.89 48.5,-199.39 43.77,-196.62 38.87,-193.26 34.47,-190.04"/>
</g>
<!-- 7 -->
<g id="node7" class="node">
<title>7</title>
<ellipse fill="none" stroke="black" cx="79.5" cy="-177.29" rx="22.2" ry="22.2"/>
<text text-anchor="middle" x="79.5" y="-173.59" font-family="Times New Roman,serif" font-size="14.00">⊤</text>
</g>
<!-- 5&#45;&#45;7 -->
<g id="edge6" class="edge">
<title>5&#45;&#45;7</title>
<path fill="none" stroke="black" d="M155.87,-242.51C138.94,-228.27 112.86,-206.34 95.98,-192.15"/>
</g>
<!-- 8 -->
<g id="node8" class="node">
<title>8</title>
<ellipse fill="lightcoral" stroke="black" cx="141.5" cy="-177.29" rx="22.2" ry="22.2"/>
<text text-anchor="middle" x="141.5" y="-173.59" font-family="Times New Roman,serif" font-size="14.00">∨</text>
</g>
<!-- 5&#45;&#45;8 -->
<g id="edge7" class="edge">
<title>5&#45;&#45;8</title>
<path fill="none" stroke="black" d="M164.68,-236.75C159.98,-224.9 154.02,-209.87 149.32,-198.02"/>
</g>
<!-- 11 -->
<g id="node11" class="node">
<title>11</title>
<ellipse fill="lightcoral" stroke="black" cx="203.5" cy="-177.29" rx="22.2" ry="22.2"/>
<text text-anchor="middle" x="203.5" y="-173.59" font-family="Times New Roman,serif" font-size="14.00">∨</text>
</g>
<!-- 5&#45;&#45;11 -->
<g id="edge10" class="edge">
<title>5&#45;&#45;11</title>
<path fill="none" stroke="black" d="M180.32,-236.75C185.02,-224.9 190.98,-209.87 195.68,-198.02"/>
</g>
<!-- 15 -->
<g id="node15" class="node">
<title>15</title>
<ellipse fill="lightcoral" stroke="black" cx="291.5" cy="-177.29" rx="22.2" ry="22.2"/>
<text text-anchor="middle" x="291.5" y="-173.59" font-family="Times New Roman,serif" font-size="14.00">∨</text>
</g>
<!-- 5&#45;&#45;15 -->
<g id="edge14" class="edge">
<title>5&#45;&#45;15</title>
<path fill="none" stroke="black" d="M190.57,-244.61C212.94,-229.91 250.81,-205.03 273.25,-190.28"/>
</g>
<!-- 9 -->
<g id="node9" class="node">
<title>9</title>
<ellipse fill="none" stroke="black" cx="39.5" cy="-97.09" rx="19.5" ry="19.5"/>
<text text-anchor="middle" x="39.5" y="-93.39" font-family="Times New Roman,serif" font-size="14.00">x2</text>
</g>
<!-- 8&#45;&#45;9 -->
<g id="edge8" class="edge">
<title>8&#45;&#45;9</title>
<path fill="none" stroke="black" d="M124.2,-163.03C104.64,-148.04 73.13,-123.88 54.56,-109.64"/>
</g>
<!-- 10 -->
<g id="node10" class="node">
<title>10</title>
<ellipse fill="none" stroke="black" cx="99.5" cy="-97.09" rx="22.2" ry="22.2"/>
<text text-anchor="middle" x="99.5" y="-93.39" font-family="Times New Roman,serif" font-size="14.00">⊤</text>
</g>
<!-- 8&#45;&#45;10 -->
<g id="edge9" class="edge">
<title>8&#45;&#45;10</title>
<path fill="none" stroke="black" d="M131.33,-157.36C124.73,-145.07 116.16,-129.11 109.57,-116.85"/>
</g>
<!-- 12 -->
<g id="node12" class="node">
<title>12</title>
<ellipse fill="none" stroke="black" cx="161.5" cy="-97.09" rx="22.2" ry="22.2"/>
<text text-anchor="middle" x="161.5" y="-93.39" font-family="Times New Roman,serif" font-size="14.00">⊤</text>
</g>
<!-- 11&#45;&#45;12 -->
<g id="edge11" class="edge">
<title>11&#45;&#45;12</title>
<path fill="none" stroke="black" d="M193.33,-157.36C186.73,-145.07 178.16,-129.11 171.57,-116.85"/>
</g>
<!-- 13 -->
<g id="node13" class="node">
<title>13</title>
<ellipse fill="lightgreen" stroke="black" cx="219.5" cy="-97.09" rx="18" ry="18"/>
<text text-anchor="middle" x="219.5" y="-93.39" font-family="Times New Roman,serif" font-size="14.00">¬</text>
</g>
<!-- 11&#45;&#45;13 -->
<g id="edge12" class="edge">
<title>11&#45;&#45;13</title>
<path fill="none" stroke="black" d="M207.79,-155.34C210.38,-142.67 213.64,-126.74 216.06,-114.9"/>
</g>
<!-- 14 -->
<g id="node14" class="node">
<title>14</title>
<ellipse fill="none" stroke="black" cx="219.5" cy="-19.5" rx="19.5" ry="19.5"/>
<text text-anchor="middle" x="219.5" y="-15.8" font-family="Times New Roman,serif" font-size="14.00">x2</text>
</g>
<!-- 13&#45;&#45;14 -->
<g id="edge13" class="edge">
<title>13&#45;&#45;14</title>
<path fill="none" stroke="black" d="M219.5,-78.94C219.5,-67.09 219.5,-51.34 219.5,-39.17"/>
</g>
<!-- 16 -->
<g id="node16" class="node">
<title>16</title>
<ellipse fill="none" stroke="black" cx="274.5" cy="-97.09" rx="19.5" ry="19.5"/>
<text text-anchor="middle" x="274.5" y="-93.39" font-family="Times New Roman,serif" font-size="14.00">x2</text>
</g>
<!-- 15&#45;&#45;16 -->
<g id="edge15" class="edge">
<title>15&#45;&#45;16</title>
<path fill="none" stroke="black" d="M286.94,-155.34C284.31,-143.21 281.02,-128.1 278.49,-116.44"/>
</g>
<!-- 17 -->
<g id="node17" class="node">
<title>17</title>
<ellipse fill="none" stroke="black" cx="334.5" cy="-97.09" rx="22.2" ry="22.2"/>
<text text-anchor="middle" x="334.5" y="-93.39" font-family="Times New Roman,serif" font-size="14.00">⊤</text>
</g>
<!-- 15&#45;&#45;17 -->
<g id="edge16" class="edge">
<title>15&#45;&#45;17</title>
<path fill="none" stroke="black" d="M301.91,-157.36C308.67,-145.07 317.44,-129.11 324.19,-116.85"/>
</g>
<!-- 18 -->
<g id="node18" class="node">
<title>18</title>
<ellipse fill="lightgreen" stroke="black" cx="392.5" cy="-97.09" rx="18" ry="18"/>
<text text-anchor="middle" x="392.5" y="-93.39" font-family="Times New Roman,serif" font-size="14.00">¬</text>
</g>
<!-- 15&#45;&#45;18 -->
<g id="edge17" class="edge">
<title>15&#45;&#45;18</title>
<path fill="none" stroke="black" d="M308.57,-163.17C323.58,-151.61 346.02,-134.32 365.5,-119.19 369.82,-115.84 374.52,-112.17 378.78,-108.84"/>
</g>
<!-- 19 -->
<g id="node19" class="node">
<title>19</title>
<ellipse fill="none" stroke="black" cx="392.5" cy="-19.5" rx="19.5" ry="19.5"/>
<text text-anchor="middle" x="392.5" y="-15.8" font-family="Times New Roman,serif" font-size="14.00">x2</text>
</g>
<!-- 18&#45;&#45;19 -->
<g id="edge18" class="edge">
<title>18&#45;&#45;19</title>
<path fill="none" stroke="black" d="M392.5,-78.94C392.5,-67.09 392.5,-51.34 392.5,-39.17"/>
</g>
<!-- 21 -->
<g id="node21" class="node">
<title>21</title>
<ellipse fill="none" stroke="black" cx="447.5" cy="-177.29" rx="22.2" ry="22.2"/>
<text text-anchor="middle" x="447.5" y="-173.59" font-family="Times New Roman,serif" font-size="14.00">⊤</text>
</g>
<!-- 20&#45;&#45;21 -->
<g id="edge20" class="edge">
<title>20&#45;&#45;21</title>
<path fill="none" stroke="black" d="M545.57,-244.49C528.35,-232.96 501.62,-215.02 478.5,-199.39 474.29,-196.54 469.77,-193.47 465.52,-190.58"/>
</g>
<!-- 22 -->
<g id="node22" class="node">
<title>22</title>
<ellipse fill="lightgreen" stroke="black" cx="505.5" cy="-177.29" rx="18" ry="18"/>
<text text-anchor="middle" x="505.5" y="-173.59" font-family="Times New Roman,serif" font-size="14.00">¬</text>
</g>
<!-- 20&#45;&#45;22 -->
<g id="edge21" class="edge">
<title>20&#45;&#45;22</title>
<path fill="none" stroke="black" d="M550.63,-239.13C540.15,-225 525.55,-205.32 515.82,-192.21"/>
</g>
<!-- 24 -->
<g id="node24" class="node">
<title>24</title>
<ellipse fill="lightcoral" stroke="black" cx="563.5" cy="-177.29" rx="22.2" ry="22.2"/>
<text text-anchor="middle" x="563.5" y="-173.59" font-family="Times New Roman,serif" font-size="14.00">∨</text>
</g>
<!-- 20&#45;&#45;24 -->
<g id="edge23" class="edge">
<title>20&#45;&#45;24</title>
<path fill="none" stroke="black" d="M563.5,-235.12C563.5,-224.09 563.5,-210.66 563.5,-199.63"/>
</g>
<!-- 27 -->
<g id="node27" class="node">
<title>27</title>
<ellipse fill="lightcoral" stroke="black" cx="625.5" cy="-177.29" rx="22.2" ry="22.2"/>
<text text-anchor="middle" x="625.5" y="-173.59" font-family="Times New Roman,serif" font-size="14.00">∨</text>
</g>
<!-- 20&#45;&#45;27 -->
<g id="edge26" class="edge">
<title>20&#45;&#45;27</title>
<path fill="none" stroke="black" d="M576.95,-239.52C587.35,-226.4 601.68,-208.33 612.07,-195.22"/>
</g>
<!-- 31 -->
<g id="node31" class="node">
<title>31</title>
<ellipse fill="lightcoral" stroke="black" cx="735.5" cy="-177.29" rx="22.2" ry="22.2"/>
<text text-anchor="middle" x="735.5" y="-173.59" font-family="Times New Roman,serif" font-size="14.00">∨</text>
</g>
<!-- 20&#45;&#45;31 -->
<g id="edge30" class="edge">
<title>20&#45;&#45;31</title>
<path fill="none" stroke="black" d="M583.23,-247.52C616.32,-232.47 682.62,-202.33 715.73,-187.28"/>
</g>
<!-- 23 -->
<g id="node23" class="node">
<title>23</title>
<ellipse fill="none" stroke="black" cx="447.5" cy="-97.09" rx="19.5" ry="19.5"/>
<text text-anchor="middle" x="447.5" y="-93.39" font-family="Times New Roman,serif" font-size="14.00">x3</text>
</g>
<!-- 22&#45;&#45;23 -->
<g id="edge22" class="edge">
<title>22&#45;&#45;23</title>
<path fill="none" stroke="black" d="M495.13,-162.31C484.9,-148.52 469.3,-127.49 458.77,-113.29"/>
</g>
<!-- 25 -->
<g id="node25" class="node">
<title>25</title>
<ellipse fill="none" stroke="black" cx="504.5" cy="-97.09" rx="19.5" ry="19.5"/>
<text text-anchor="middle" x="504.5" y="-93.39" font-family="Times New Roman,serif" font-size="14.00">x2</text>
</g>
<!-- 24&#45;&#45;25 -->
<g id="edge24" class="edge">
<title>24&#45;&#45;25</title>
<path fill="none" stroke="black" d="M550.4,-158.94C540.02,-145.17 525.65,-126.12 515.77,-113.03"/>
</g>
<!-- 26 -->
<g id="node26" class="node">
<title>26</title>
<ellipse fill="none" stroke="black" cx="564.5" cy="-97.09" rx="22.2" ry="22.2"/>
<text text-anchor="middle" x="564.5" y="-93.39" font-family="Times New Roman,serif" font-size="14.00">⊤</text>
</g>
<!-- 24&#45;&#45;26 -->
<g id="edge25" class="edge">
<title>24&#45;&#45;26</title>
<path fill="none" stroke="black" d="M563.77,-154.92C563.91,-143.89 564.08,-130.47 564.23,-119.44"/>
</g>
<!-- 28 -->
<g id="node28" class="node">
<title>28</title>
<ellipse fill="none" stroke="black" cx="624.5" cy="-97.09" rx="19.5" ry="19.5"/>
<text text-anchor="middle" x="624.5" y="-93.39" font-family="Times New Roman,serif" font-size="14.00">x2</text>
</g>
<!-- 27&#45;&#45;28 -->
<g id="edge27" class="edge">
<title>27&#45;&#45;28</title>
<path fill="none" stroke="black" d="M625.23,-154.92C625.07,-142.99 624.88,-128.25 624.74,-116.77"/>
</g>
<!-- 29 -->
<g id="node29" class="node">
<title>29</title>
<ellipse fill="lightgreen" stroke="black" cx="679.5" cy="-97.09" rx="18" ry="18"/>
<text text-anchor="middle" x="679.5" y="-93.39" font-family="Times New Roman,serif" font-size="14.00">¬</text>
</g>
<!-- 27&#45;&#45;29 -->
<g id="edge28" class="edge">
<title>27&#45;&#45;29</title>
<path fill="none" stroke="black" d="M637.75,-158.55C647.4,-144.58 660.67,-125.36 669.64,-112.38"/>
</g>
<!-- 30 -->
<g id="node30" class="node">
<title>30</title>
<ellipse fill="none" stroke="black" cx="679.5" cy="-19.5" rx="19.5" ry="19.5"/>
<text text-anchor="middle" x="679.5" y="-15.8" font-family="Times New Roman,serif" font-size="14.00">x2</text>
</g>
<!-- 29&#45;&#45;30 -->
<g id="edge29" class="edge">
<title>29&#45;&#45;30</title>
<path fill="none" stroke="black" d="M679.5,-78.94C679.5,-67.09 679.5,-51.34 679.5,-39.17"/>
</g>
<!-- 32 -->
<g id="node32" class="node">
<title>32</title>
<ellipse fill="none" stroke="black" cx="737.5" cy="-97.09" rx="22.2" ry="22.2"/>
<text text-anchor="middle" x="737.5" y="-93.39" font-family="Times New Roman,serif" font-size="14.00">⊤</text>
</g>
<!-- 31&#45;&#45;32 -->
<g id="edge31" class="edge">
<title>31&#45;&#45;32</title>
<path fill="none" stroke="black" d="M736.04,-154.92C736.33,-143.89 736.67,-130.47 736.95,-119.44"/>
</g>
<!-- 33 -->
<g id="node33" class="node">
<title>33</title>
<ellipse fill="lightgreen" stroke="black" cx="795.5" cy="-97.09" rx="18" ry="18"/>
<text text-anchor="middle" x="795.5" y="-93.39" font-family="Times New Roman,serif" font-size="14.00">¬</text>
</g>
<!-- 31&#45;&#45;33 -->
<g id="edge32" class="edge">
<title>31&#45;&#45;33</title>
<path fill="none" stroke="black" d="M748.52,-159.32C759.41,-145.13 774.75,-125.13 784.9,-111.9"/>
</g>
<!-- 34 -->
<g id="node34" class="node">
<title>34</title>
<ellipse fill="none" stroke="black" cx="795.5" cy="-19.5" rx="19.5" ry="19.5"/>
<text text-anchor="middle" x="795.5" y="-15.8" font-family="Times New Roman,serif" font-size="14.00">x2</text>
</g>
<!-- 33&#45;&#45;34 -->
<g id="edge33" class="edge">
<title>33&#45;&#45;34</title>
<path fill="none" stroke="black" d="M795.5,-78.94C795.5,-67.09 795.5,-51.34 795.5,-39.17"/>
</g>
<!-- 36 -->
<g id="node36" class="node">
<title>36</title>
<ellipse fill="lightgreen" stroke="black" cx="741.5" cy="-337.68" rx="18" ry="18"/>
<text text-anchor="middle" x="741.5" y="-333.98" font-family="Times New Roman,serif" font-size="14.00">¬</text>
</g>
<!-- 35&#45;&#45;36 -->
<g id="edge35" class="edge">
<title>35&#45;&#45;36</title>
<path fill="none" stroke="black" d="M741.5,-395.51C741.5,-383.03 741.5,-367.49 741.5,-355.82"/>
</g>
<!-- 38 -->
<g id="node38" class="node">
<title>38</title>
<ellipse fill="lightcoral" stroke="black" cx="917.5" cy="-337.68" rx="22.2" ry="22.2"/>
<text text-anchor="middle" x="917.5" y="-333.98" font-family="Times New Roman,serif" font-size="14.00">∨</text>
</g>
<!-- 35&#45;&#45;38 -->
<g id="edge37" class="edge">
<title>35&#45;&#45;38</title>
<path fill="none" stroke="black" d="M761.35,-408.06C795.15,-393.04 863.52,-362.67 897.45,-347.59"/>
</g>
<!-- 37 -->
<g id="node37" class="node">
<title>37</title>
<ellipse fill="none" stroke="black" cx="741.5" cy="-257.49" rx="19.5" ry="19.5"/>
<text text-anchor="middle" x="741.5" y="-253.79" font-family="Times New Roman,serif" font-size="14.00">x1</text>
</g>
<!-- 36&#45;&#45;37 -->
<g id="edge36" class="edge">
<title>36&#45;&#45;37</title>
<path fill="none" stroke="black" d="M741.5,-319.33C741.5,-306.82 741.5,-289.96 741.5,-277.16"/>
</g>
<!-- 39 -->
<g id="node39" class="node">
<title>39</title>
<ellipse fill="lightblue" stroke="black" cx="917.5" cy="-257.49" rx="22.2" ry="22.2"/>
<text text-anchor="middle" x="917.5" y="-253.79" font-family="Times New Roman,serif" font-size="14.00">∧</text>
</g>
<!-- 38&#45;&#45;39 -->
<g id="edge38" class="edge">
<title>38&#45;&#45;39</title>
<path fill="none" stroke="black" d="M917.5,-315.32C917.5,-304.28 917.5,-290.86 917.5,-279.83"/>
</g>
<!-- 54 -->
<g id="node54" class="node">
<title>54</title>
<ellipse fill="lightblue" stroke="black" cx="1307.5" cy="-257.49" rx="22.2" ry="22.2"/>
<text text-anchor="middle" x="1307.5" y="-253.79" font-family="Times New Roman,serif" font-size="14.00">∧</text>
</g>
<!-- 38&#45;&#45;54 -->
<g id="edge53" class="edge">
<title>38&#45;&#45;54</title>
<path fill="none" stroke="black" d="M939.02,-332.37C1007.21,-318.7 1217.95,-276.44 1286.04,-262.79"/>
</g>
<!-- 40 -->
<g id="node40" class="node">
<title>40</title>
<ellipse fill="none" stroke="black" cx="795.5" cy="-177.29" rx="19.5" ry="19.5"/>
<text text-anchor="middle" x="795.5" y="-173.59" font-family="Times New Roman,serif" font-size="14.00">x3</text>
</g>
<!-- 39&#45;&#45;40 -->
<g id="edge39" class="edge">
<title>39&#45;&#45;40</title>
<path fill="none" stroke="black" d="M898.7,-245.53C879.72,-234.34 849.69,-216.25 824.5,-199.39 819.94,-196.34 815.1,-192.9 810.69,-189.69"/>
</g>
<!-- 41 -->
<g id="node41" class="node">
<title>41</title>
<ellipse fill="none" stroke="black" cx="855.5" cy="-177.29" rx="22.2" ry="22.2"/>
<text text-anchor="middle" x="855.5" y="-173.59" font-family="Times New Roman,serif" font-size="14.00">⊤</text>
</g>
<!-- 39&#45;&#45;41 -->
<g id="edge40" class="edge">
<title>39&#45;&#45;41</title>
<path fill="none" stroke="black" d="M904.05,-239.52C893.65,-226.4 879.32,-208.33 868.93,-195.22"/>
</g>
<!-- 42 -->
<g id="node42" class="node">
<title>42</title>
<ellipse fill="lightcoral" stroke="black" cx="917.5" cy="-177.29" rx="22.2" ry="22.2"/>
<text text-anchor="middle" x="917.5" y="-173.59" font-family="Times New Roman,serif" font-size="14.00">∨</text>
</g>
<!-- 39&#45;&#45;42 -->
<g id="edge41" class="edge">
<title>39&#45;&#45;42</title>
<path fill="none" stroke="black" d="M917.5,-235.12C917.5,-224.09 917.5,-210.66 917.5,-199.63"/>
</g>
<!-- 45 -->
<g id="node45" class="node">
<title>45</title>
<ellipse fill="lightcoral" stroke="black" cx="979.5" cy="-177.29" rx="22.2" ry="22.2"/>
<text text-anchor="middle" x="979.5" y="-173.59" font-family="Times New Roman,serif" font-size="14.00">∨</text>
</g>
<!-- 39&#45;&#45;45 -->
<g id="edge44" class="edge">
<title>39&#45;&#45;45</title>
<path fill="none" stroke="black" d="M930.95,-239.52C941.35,-226.4 955.68,-208.33 966.07,-195.22"/>
</g>
<!-- 49 -->
<g id="node49" class="node">
<title>49</title>
<ellipse fill="lightcoral" stroke="black" cx="1132.5" cy="-177.29" rx="22.2" ry="22.2"/>
<text text-anchor="middle" x="1132.5" y="-173.59" font-family="Times New Roman,serif" font-size="14.00">∨</text>
</g>
<!-- 39&#45;&#45;49 -->
<g id="edge48" class="edge">
<title>39&#45;&#45;49</title>
<path fill="none" stroke="black" d="M938.11,-248.99C979.21,-234.04 1070.9,-200.69 1111.95,-185.77"/>
</g>
<!-- 43 -->
<g id="node43" class="node">
<title>43</title>
<ellipse fill="none" stroke="black" cx="854.5" cy="-97.09" rx="19.5" ry="19.5"/>
<text text-anchor="middle" x="854.5" y="-93.39" font-family="Times New Roman,serif" font-size="14.00">x2</text>
</g>
<!-- 42&#45;&#45;43 -->
<g id="edge42" class="edge">
<title>42&#45;&#45;43</title>
<path fill="none" stroke="black" d="M903.83,-159.32C892.68,-145.49 877.09,-126.14 866.44,-112.92"/>
</g>
<!-- 44 -->
<g id="node44" class="node">
<title>44</title>
<ellipse fill="none" stroke="black" cx="914.5" cy="-97.09" rx="22.2" ry="22.2"/>
<text text-anchor="middle" x="914.5" y="-93.39" font-family="Times New Roman,serif" font-size="14.00">⊤</text>
</g>
<!-- 42&#45;&#45;44 -->
<g id="edge43" class="edge">
<title>42&#45;&#45;44</title>
<path fill="none" stroke="black" d="M916.68,-154.92C916.26,-143.89 915.74,-130.47 915.32,-119.44"/>
</g>
<!-- 46 -->
<g id="node46" class="node">
<title>46</title>
<ellipse fill="none" stroke="black" cx="976.5" cy="-97.09" rx="22.2" ry="22.2"/>
<text text-anchor="middle" x="976.5" y="-93.39" font-family="Times New Roman,serif" font-size="14.00">⊤</text>
</g>
<!-- 45&#45;&#45;46 -->
<g id="edge45" class="edge">
<title>45&#45;&#45;46</title>
<path fill="none" stroke="black" d="M978.68,-154.92C978.26,-143.89 977.74,-130.47 977.32,-119.44"/>
</g>
<!-- 47 -->
<g id="node47" class="node">
<title>47</title>
<ellipse fill="lightgreen" stroke="black" cx="1034.5" cy="-97.09" rx="18" ry="18"/>
<text text-anchor="middle" x="1034.5" y="-93.39" font-family="Times New Roman,serif" font-size="14.00">¬</text>
</g>
<!-- 45&#45;&#45;47 -->
<g id="edge46" class="edge">
<title>45&#45;&#45;47</title>
<path fill="none" stroke="black" d="M991.98,-158.55C1001.8,-144.58 1015.32,-125.36 1024.45,-112.38"/>
</g>
<!-- 48 -->
<g id="node48" class="node">
<title>48</title>
<ellipse fill="none" stroke="black" cx="1034.5" cy="-19.5" rx="19.5" ry="19.5"/>
<text text-anchor="middle" x="1034.5" y="-15.8" font-family="Times New Roman,serif" font-size="14.00">x2</text>
</g>
<!-- 47&#45;&#45;48 -->
<g id="edge47" class="edge">
<title>47&#45;&#45;48</title>
<path fill="none" stroke="black" d="M1034.5,-78.94C1034.5,-67.09 1034.5,-51.34 1034.5,-39.17"/>
</g>
<!-- 50 -->
<g id="node50" class="node">
<title>50</title>
<ellipse fill="none" stroke="black" cx="1089.5" cy="-97.09" rx="19.5" ry="19.5"/>
<text text-anchor="middle" x="1089.5" y="-93.39" font-family="Times New Roman,serif" font-size="14.00">x2</text>
</g>
<!-- 49&#45;&#45;50 -->
<g id="edge49" class="edge">
<title>49&#45;&#45;50</title>
<path fill="none" stroke="black" d="M1122.09,-157.36C1114.88,-144.25 1105.38,-126.98 1098.5,-114.47"/>
</g>
<!-- 51 -->
<g id="node51" class="node">
<title>51</title>
<ellipse fill="none" stroke="black" cx="1149.5" cy="-97.09" rx="22.2" ry="22.2"/>
<text text-anchor="middle" x="1149.5" y="-93.39" font-family="Times New Roman,serif" font-size="14.00">⊤</text>
</g>
<!-- 49&#45;&#45;51 -->
<g id="edge50" class="edge">
<title>49&#45;&#45;51</title>
<path fill="none" stroke="black" d="M1137.05,-155.34C1139.51,-144.03 1142.54,-130.11 1144.99,-118.84"/>
</g>
<!-- 52 -->
<g id="node52" class="node">
<title>52</title>
<ellipse fill="lightgreen" stroke="black" cx="1207.5" cy="-97.09" rx="18" ry="18"/>
<text text-anchor="middle" x="1207.5" y="-93.39" font-family="Times New Roman,serif" font-size="14.00">¬</text>
</g>
<!-- 49&#45;&#45;52 -->
<g id="edge51" class="edge">
<title>49&#45;&#45;52</title>
<path fill="none" stroke="black" d="M1147.32,-160.84C1161.32,-146.24 1182.08,-124.6 1195.19,-110.92"/>
</g>
<!-- 53 -->
<g id="node53" class="node">
<title>53</title>
<ellipse fill="none" stroke="black" cx="1207.5" cy="-19.5" rx="19.5" ry="19.5"/>
<text text-anchor="middle" x="1207.5" y="-15.8" font-family="Times New Roman,serif" font-size="14.00">x2</text>
</g>
<!-- 52&#45;&#45;53 -->
<g id="edge52" class="edge">
<title>52&#45;&#45;53</title>
<path fill="none" stroke="black" d="M1207.5,-78.94C1207.5,-67.09 1207.5,-51.34 1207.5,-39.17"/>
</g>
<!-- 55 -->
<g id="node55" class="node">
<title>55</title>
<ellipse fill="none" stroke="black" cx="1220.5" cy="-177.29" rx="22.2" ry="22.2"/>
<text text-anchor="middle" x="1220.5" y="-173.59" font-family="Times New Roman,serif" font-size="14.00">⊤</text>
</g>
<!-- 54&#45;&#45;55 -->
<g id="edge54" class="edge">
<title>54&#45;&#45;55</title>
<path fill="none" stroke="black" d="M1291.54,-242.14C1275.94,-228.12 1252.31,-206.89 1236.65,-192.81"/>
</g>
<!-- 56 -->
<g id="node56" class="node">
<title>56</title>
<ellipse fill="lightgreen" stroke="black" cx="1278.5" cy="-177.29" rx="18" ry="18"/>
<text text-anchor="middle" x="1278.5" y="-173.59" font-family="Times New Roman,serif" font-size="14.00">¬</text>
</g>
<!-- 54&#45;&#45;56 -->
<g id="edge55" class="edge">
<title>54&#45;&#45;56</title>
<path fill="none" stroke="black" d="M1300.03,-236.35C1295.2,-223.32 1288.99,-206.58 1284.48,-194.42"/>
</g>
<!-- 58 -->
<g id="node58" class="node">
<title>58</title>
<ellipse fill="lightcoral" stroke="black" cx="1336.5" cy="-177.29" rx="22.2" ry="22.2"/>
<text text-anchor="middle" x="1336.5" y="-173.59" font-family="Times New Roman,serif" font-size="14.00">∨</text>
</g>
<!-- 54&#45;&#45;58 -->
<g id="edge57" class="edge">
<title>54&#45;&#45;58</title>
<path fill="none" stroke="black" d="M1314.97,-236.35C1319.3,-224.67 1324.73,-210.02 1329.06,-198.36"/>
</g>
<!-- 61 -->
<g id="node61" class="node">
<title>61</title>
<ellipse fill="lightcoral" stroke="black" cx="1441.5" cy="-177.29" rx="22.2" ry="22.2"/>
<text text-anchor="middle" x="1441.5" y="-173.59" font-family="Times New Roman,serif" font-size="14.00">∨</text>
</g>
<!-- 54&#45;&#45;61 -->
<g id="edge60" class="edge">
<title>54&#45;&#45;61</title>
<path fill="none" stroke="black" d="M1326.41,-245.45C1351.95,-230.55 1397.19,-204.15 1422.68,-189.27"/>
</g>
<!-- 65 -->
<g id="node65" class="node">
<title>65</title>
<ellipse fill="lightcoral" stroke="black" cx="1584.5" cy="-177.29" rx="22.2" ry="22.2"/>
<text text-anchor="middle" x="1584.5" y="-173.59" font-family="Times New Roman,serif" font-size="14.00">∨</text>
</g>
<!-- 54&#45;&#45;65 -->
<g id="edge64" class="edge">
<title>54&#45;&#45;65</title>
<path fill="none" stroke="black" d="M1328.77,-250.48C1380.34,-235.93 1511.51,-198.89 1563.15,-184.32"/>
</g>
<!-- 57 -->
<g id="node57" class="node">
<title>57</title>
<ellipse fill="none" stroke="black" cx="1262.5" cy="-97.09" rx="19.5" ry="19.5"/>
<text text-anchor="middle" x="1262.5" y="-93.39" font-family="Times New Roman,serif" font-size="14.00">x3</text>
</g>
<!-- 56&#45;&#45;57 -->
<g id="edge56" class="edge">
<title>56&#45;&#45;57</title>
<path fill="none" stroke="black" d="M1275.03,-159.32C1272.43,-146.66 1268.9,-129.37 1266.24,-116.39"/>
</g>
<!-- 59 -->
<g id="node59" class="node">
<title>59</title>
<ellipse fill="none" stroke="black" cx="1319.5" cy="-97.09" rx="19.5" ry="19.5"/>
<text text-anchor="middle" x="1319.5" y="-93.39" font-family="Times New Roman,serif" font-size="14.00">x2</text>
</g>
<!-- 58&#45;&#45;59 -->
<g id="edge58" class="edge">
<title>58&#45;&#45;59</title>
<path fill="none" stroke="black" d="M1331.94,-155.34C1329.31,-143.21 1326.02,-128.1 1323.49,-116.44"/>
</g>
<!-- 60 -->
<g id="node60" class="node">
<title>60</title>
<ellipse fill="none" stroke="black" cx="1379.5" cy="-97.09" rx="22.2" ry="22.2"/>
<text text-anchor="middle" x="1379.5" y="-93.39" font-family="Times New Roman,serif" font-size="14.00">⊤</text>
</g>
<!-- 58&#45;&#45;60 -->
<g id="edge59" class="edge">
<title>58&#45;&#45;60</title>
<path fill="none" stroke="black" d="M1346.91,-157.36C1353.67,-145.07 1362.44,-129.11 1369.19,-116.85"/>
</g>
<!-- 62 -->
<g id="node62" class="node">
<title>62</title>
<ellipse fill="none" stroke="black" cx="1441.5" cy="-97.09" rx="22.2" ry="22.2"/>
<text text-anchor="middle" x="1441.5" y="-93.39" font-family="Times New Roman,serif" font-size="14.00">⊤</text>
</g>
<!-- 61&#45;&#45;62 -->
<g id="edge61" class="edge">
<title>61&#45;&#45;62</title>
<path fill="none" stroke="black" d="M1441.5,-154.92C1441.5,-143.89 1441.5,-130.47 1441.5,-119.44"/>
</g>
<!-- 63 -->
<g id="node63" class="node">
<title>63</title>
<ellipse fill="lightgreen" stroke="black" cx="1499.5" cy="-97.09" rx="18" ry="18"/>
<text text-anchor="middle" x="1499.5" y="-93.39" font-family="Times New Roman,serif" font-size="14.00">¬</text>
</g>
<!-- 61&#45;&#45;63 -->
<g id="edge62" class="edge">
<title>61&#45;&#45;63</title>
<path fill="none" stroke="black" d="M1454.37,-158.94C1464.85,-144.81 1479.45,-125.13 1489.17,-112.02"/>
</g>
<!-- 64 -->
<g id="node64" class="node">
<title>64</title>
<ellipse fill="none" stroke="black" cx="1499.5" cy="-19.5" rx="19.5" ry="19.5"/>
<text text-anchor="middle" x="1499.5" y="-15.8" font-family="Times New Roman,serif" font-size="14.00">x2</text>
</g>
<!-- 63&#45;&#45;64 -->
<g id="edge63" class="edge">
<title>63&#45;&#45;64</title>
<path fill="none" stroke="black" d="M1499.5,-78.94C1499.5,-67.09 1499.5,-51.34 1499.5,-39.17"/>
</g>
<!-- 66 -->
<g id="node66" class="node">
<title>66</title>
<ellipse fill="none" stroke="black" cx="1554.5" cy="-97.09" rx="19.5" ry="19.5"/>
<text text-anchor="middle" x="1554.5" y="-93.39" font-family="Times New Roman,serif" font-size="14.00">x2</text>
</g>
<!-- 65&#45;&#45;66 -->
<g id="edge65" class="edge">
<title>65&#45;&#45;66</title>
<path fill="none" stroke="black" d="M1576.77,-156.15C1571.95,-143.57 1565.79,-127.54 1561.18,-115.51"/>
</g>
<!-- 67 -->
<g id="node67" class="node">
<title>67</title>
<ellipse fill="none" stroke="black" cx="1614.5" cy="-97.09" rx="22.2" ry="22.2"/>
<text text-anchor="middle" x="1614.5" y="-93.39" font-family="Times New Roman,serif" font-size="14.00">⊤</text>
</g>
<!-- 65&#45;&#45;67 -->
<g id="edge66" class="edge">
<title>65&#45;&#45;67</title>
<path fill="none" stroke="black" d="M1592.22,-156.15C1596.74,-144.39 1602.41,-129.6 1606.9,-117.89"/>
</g>
<!-- 68 -->
<g id="node68" class="node">
<title>68</title>
<ellipse fill="lightgreen" stroke="black" cx="1672.5" cy="-97.09" rx="18" ry="18"/>
<text text-anchor="middle" x="1672.5" y="-93.39" font-family="Times New Roman,serif" font-size="14.00">¬</text>
</g>
<!-- 65&#45;&#45;68 -->
<g id="edge67" class="edge">
<title>65&#45;&#45;68</title>
<path fill="none" stroke="black" d="M1600.64,-161.95C1617.51,-146.96 1643.66,-123.72 1659.33,-109.8"/>
</g>
<!-- 69 -->
<g id="node69" class="node">
<title>69</title>
<ellipse fill="none" stroke="black" cx="1672.5" cy="-19.5" rx="19.5" ry="19.5"/>
<text text-anchor="middle" x="1672.5" y="-15.8" font-family="Times New Roman,serif" font-size="14.00">x2</text>
</g>
<!-- 68&#45;&#45;69 -->
<g id="edge68" class="edge">
<title>68&#45;&#45;69</title>
<path fill="none" stroke="black" d="M1672.5,-78.94C1672.5,-67.09 1672.5,-51.34 1672.5,-39.17"/>
</g>
</g>
</svg>
