<?xml version="1.0" encoding="UTF-8" standalone="no"?>
<!DOCTYPE svg PUBLIC "-//W3C//DTD SVG 1.1//EN"
 "http://www.w3.org/Graphics/SVG/1.1/DTD/svg11.dtd">
<!-- Generated by graphviz version 2.46.0 (20210118.1747)
 -->
<!-- Pages: 1 -->
<svg width="378pt" height="349pt"
 viewBox="0.00 0.00 378.00 349.19" xmlns="http://www.w3.org/2000/svg" xmlns:xlink="http://www.w3.org/1999/xlink">
<g id="graph0" class="graph" transform="scale(1 1) rotate(0) translate(4 345.19)">
<polygon fill="white" stroke="transparent" points="-4,4 -4,-345.19 374,-345.19 374,4 -4,4"/>
<!-- 1 -->
<g id="node1" class="node">
<title>1</title>
<ellipse fill="lightcoral" stroke="black" cx="147.5" cy="-323.19" rx="18" ry="18"/>
<text text-anchor="middle" x="147.5" y="-319.49" font-family="Times New Roman,serif" font-size="14.00">¬</text>
</g>
<!-- 2 -->
<g id="node2" class="node">
<title>2</title>
<ellipse fill="lightblue" stroke="black" cx="116.5" cy="-247.09" rx="22.2" ry="22.2"/>
<text text-anchor="middle" x="116.5" y="-243.39" font-family="Times New Roman,serif" font-size="14.00">∧</text>
</g>
<!-- 1&#45;&#45;2 -->
<g id="edge1" class="edge">
<title>1&#45;&#45;2</title>
<path fill="none" stroke="black" d="M140.77,-306.11C136.07,-294.87 129.76,-279.8 124.76,-267.83"/>
</g>
<!-- 9 -->
<g id="node9" class="node">
<title>9</title>
<ellipse fill="lightblue" stroke="black" cx="202.5" cy="-247.09" rx="22.2" ry="22.2"/>
<text text-anchor="middle" x="202.5" y="-243.39" font-family="Times New Roman,serif" font-size="14.00">∧</text>
</g>
<!-- 1&#45;&#45;9 -->
<g id="edge8" class="edge">
<title>1&#45;&#45;9</title>
<path fill="none" stroke="black" d="M157.84,-308.25C166.87,-296.09 179.99,-278.4 189.68,-265.35"/>
</g>
<!-- 3 -->
<g id="node3" class="node">
<title>3</title>
<ellipse fill="lightgreen" stroke="black" cx="21.5" cy="-169.49" rx="18" ry="18"/>
<text text-anchor="middle" x="21.5" y="-165.79" font-family="Times New Roman,serif" font-size="14.00">¬</text>
</g>
<!-- 2&#45;&#45;3 -->
<g id="edge2" class="edge">
<title>2&#45;&#45;3</title>
<path fill="none" stroke="black" d="M99.51,-232.57C81.15,-217.96 52.25,-194.96 35.25,-181.44"/>
</g>
<!-- 5 -->
<g id="node5" class="node">
<title>5</title>
<ellipse fill="lightgreen" stroke="black" cx="76.5" cy="-169.49" rx="18" ry="18"/>
<text text-anchor="middle" x="76.5" y="-165.79" font-family="Times New Roman,serif" font-size="14.00">¬</text>
</g>
<!-- 2&#45;&#45;5 -->
<g id="edge4" class="edge">
<title>2&#45;&#45;5</title>
<path fill="none" stroke="black" d="M106.4,-227.01C99.65,-214.24 90.87,-197.65 84.57,-185.76"/>
</g>
<!-- 7 -->
<g id="node7" class="node">
<title>7</title>
<ellipse fill="lightgreen" stroke="black" cx="131.5" cy="-169.49" rx="18" ry="18"/>
<text text-anchor="middle" x="131.5" y="-165.79" font-family="Times New Roman,serif" font-size="14.00">¬</text>
</g>
<!-- 2&#45;&#45;7 -->
<g id="edge6" class="edge">
<title>2&#45;&#45;7</title>
<path fill="none" stroke="black" d="M120.68,-225.03C123.03,-213.15 125.94,-198.5 128.15,-187.37"/>
</g>
<!-- 4 -->
<g id="node4" class="node">
<title>4</title>
<ellipse fill="none" stroke="black" cx="19.5" cy="-94.49" rx="19.5" ry="19.5"/>
<text text-anchor="middle" x="19.5" y="-90.79" font-family="Times New Roman,serif" font-size="14.00">x1</text>
</g>
<!-- 3&#45;&#45;4 -->
<g id="edge3" class="edge">
<title>3&#45;&#45;4</title>
<path fill="none" stroke="black" d="M21.02,-151.19C20.72,-140.06 20.32,-125.6 20.01,-114.2"/>
</g>
<!-- 6 -->
<g id="node6" class="node">
<title>6</title>
<ellipse fill="none" stroke="black" cx="76.5" cy="-94.49" rx="19.5" ry="19.5"/>
<text text-anchor="middle" x="76.5" y="-90.79" font-family="Times New Roman,serif" font-size="14.00">x2</text>
</g>
<!-- 5&#45;&#45;6 -->
<g id="edge5" class="edge">
<title>5&#45;&#45;6</title>
<path fill="none" stroke="black" d="M76.5,-151.19C76.5,-140.06 76.5,-125.6 76.5,-114.2"/>
</g>
<!-- 8 -->
<g id="node8" class="node">
<title>8</title>
<ellipse fill="none" stroke="black" cx="133.5" cy="-94.49" rx="19.5" ry="19.5"/>
<text text-anchor="middle" x="133.5" y="-90.79" font-family="Times New Roman,serif" font-size="14.00">x3</text>
</g>
<!-- 7&#45;&#45;8 -->
<g id="edge7" class="edge">
<title>7&#45;&#45;8</title>
<path fill="none" stroke="black" d="M131.97,-151.19C132.28,-140.06 132.67,-125.6 132.99,-114.2"/>
</g>
<!-- 10 -->
<g id="node10" class="node">
<title>10</title>
<ellipse fill="none" stroke="black" cx="187.5" cy="-169.49" rx="19.5" ry="19.5"/>
<text text-anchor="middle" x="187.5" y="-165.79" font-family="Times New Roman,serif" font-size="14.00">x3</text>
</g>
<!-- 9&#45;&#45;10 -->
<g id="edge9" class="edge">
<title>9&#45;&#45;10</title>
<path fill="none" stroke="black" d="M198.32,-225.03C196.07,-213.67 193.31,-199.78 191.14,-188.87"/>
</g>
<!-- 11 -->
<g id="node11" class="node">
<title>11</title>
<ellipse fill="lightcoral" stroke="black" cx="242.5" cy="-169.49" rx="18" ry="18"/>
<text text-anchor="middle" x="242.5" y="-165.79" font-family="Times New Roman,serif" font-size="14.00">¬</text>
</g>
<!-- 9&#45;&#45;11 -->
<g id="edge10" class="edge">
<title>9&#45;&#45;11</title>
<path fill="none" stroke="black" d="M212.59,-227.01C219.35,-214.24 228.13,-197.65 234.42,-185.76"/>
</g>
<!-- 15 -->
<g id="node15" class="node">
<title>15</title>
<ellipse fill="lightcoral" stroke="black" cx="296.5" cy="-169.49" rx="18" ry="18"/>
<text text-anchor="middle" x="296.5" y="-165.79" font-family="Times New Roman,serif" font-size="14.00">¬</text>
</g>
<!-- 9&#45;&#45;15 -->
<g id="edge14" class="edge">
<title>9&#45;&#45;15</title>
<path fill="none" stroke="black" d="M219.3,-232.57C237.47,-217.96 266.07,-194.96 282.89,-181.44"/>
</g>
<!-- 12 -->
<g id="node12" class="node">
<title>12</title>
<ellipse fill="none" stroke="black" cx="188.5" cy="-94.49" rx="18" ry="18"/>
</g>
<!-- 11&#45;&#45;12 -->
<g id="edge11" class="edge">
<title>11&#45;&#45;12</title>
<path fill="none" stroke="black" d="M232.09,-154.42C222.52,-141.49 208.43,-122.44 198.88,-109.53"/>
</g>
<!-- 13 -->
<g id="node13" class="node">
<title>13</title>
<ellipse fill="lightgreen" stroke="black" cx="242.5" cy="-94.49" rx="18" ry="18"/>
<text text-anchor="middle" x="242.5" y="-90.79" font-family="Times New Roman,serif" font-size="14.00">¬</text>
</g>
<!-- 11&#45;&#45;13 -->
<g id="edge12" class="edge">
<title>11&#45;&#45;13</title>
<path fill="none" stroke="black" d="M242.5,-151.19C242.5,-139.56 242.5,-124.28 242.5,-112.67"/>
</g>
<!-- 14 -->
<g id="node14" class="node">
<title>14</title>
<ellipse fill="none" stroke="black" cx="242.5" cy="-19.5" rx="19.5" ry="19.5"/>
<text text-anchor="middle" x="242.5" y="-15.8" font-family="Times New Roman,serif" font-size="14.00">x1</text>
</g>
<!-- 13&#45;&#45;14 -->
<g id="edge13" class="edge">
<title>13&#45;&#45;14</title>
<path fill="none" stroke="black" d="M242.5,-76.2C242.5,-65.07 242.5,-50.6 242.5,-39.21"/>
</g>
<!-- 16 -->
<g id="node16" class="node">
<title>16</title>
<ellipse fill="none" stroke="black" cx="296.5" cy="-94.49" rx="18" ry="18"/>
</g>
<!-- 15&#45;&#45;16 -->
<g id="edge15" class="edge">
<title>15&#45;&#45;16</title>
<path fill="none" stroke="black" d="M296.5,-151.19C296.5,-139.56 296.5,-124.28 296.5,-112.67"/>
</g>
<!-- 17 -->
<g id="node17" class="node">
<title>17</title>
<ellipse fill="lightgreen" stroke="black" cx="350.5" cy="-94.49" rx="18" ry="18"/>
<text text-anchor="middle" x="350.5" y="-90.79" font-family="Times New Roman,serif" font-size="14.00">¬</text>
</g>
<!-- 15&#45;&#45;17 -->
<g id="edge16" class="edge">
<title>15&#45;&#45;17</title>
<path fill="none" stroke="black" d="M306.91,-154.42C316.47,-141.49 330.57,-122.44 340.12,-109.53"/>
</g>
<!-- 18 -->
<g id="node18" class="node">
<title>18</title>
<ellipse fill="none" stroke="black" cx="350.5" cy="-19.5" rx="19.5" ry="19.5"/>
<text text-anchor="middle" x="350.5" y="-15.8" font-family="Times New Roman,serif" font-size="14.00">x2</text>
</g>
<!-- 17&#45;&#45;18 -->
<g id="edge17" class="edge">
<title>17&#45;&#45;18</title>
<path fill="none" stroke="black" d="M350.5,-76.2C350.5,-65.07 350.5,-50.6 350.5,-39.21"/>
</g>
</g>
</svg>
