<?xml version="1.0" encoding="UTF-8" standalone="no"?>
<!DOCTYPE svg PUBLIC "-//W3C//DTD SVG 1.1//EN"
 "http://www.w3.org/Graphics/SVG/1.1/DTD/svg11.dtd">
<!-- Generated by graphviz version 2.46.0 (20210118.1747)
 -->
<!-- Pages: 1 -->
<svg width="629pt" height="373pt"
 viewBox="0.00 0.00 628.60 372.98" xmlns="http://www.w3.org/2000/svg" xmlns:xlink="http://www.w3.org/1999/xlink">
<g id="graph0" class="graph" transform="scale(1 1) rotate(0) translate(4 368.98)">
<polygon fill="white" stroke="transparent" points="-4,4 -4,-368.98 624.6,-368.98 624.6,4 -4,4"/>
<!-- 1 -->
<g id="node1" class="node">
<title>1</title>
<ellipse fill="lightblue" stroke="black" cx="247.5" cy="-342.88" rx="22.2" ry="22.2"/>
<text text-anchor="middle" x="247.5" y="-339.18" font-family="Times New Roman,serif" font-size="14.00">∧</text>
</g>
<!-- 2 -->
<g id="node2" class="node">
<title>2</title>
<ellipse fill="lightcoral" stroke="black" cx="162.5" cy="-262.69" rx="22.2" ry="22.2"/>
<text text-anchor="middle" x="162.5" y="-258.99" font-family="Times New Roman,serif" font-size="14.00">∨</text>
</g>
<!-- 1&#45;&#45;2 -->
<g id="edge1" class="edge">
<title>1&#45;&#45;2</title>
<path fill="none" stroke="black" d="M231.51,-327.17C216.31,-313.19 193.59,-292.29 178.41,-278.33"/>
</g>
<!-- 12 -->
<g id="node12" class="node">
<title>12</title>
<ellipse fill="lightcoral" stroke="black" cx="306.5" cy="-262.69" rx="22.2" ry="22.2"/>
<text text-anchor="middle" x="306.5" y="-258.99" font-family="Times New Roman,serif" font-size="14.00">∨</text>
</g>
<!-- 1&#45;&#45;12 -->
<g id="edge11" class="edge">
<title>1&#45;&#45;12</title>
<path fill="none" stroke="black" d="M260.59,-324.53C270.44,-311.48 283.86,-293.69 293.64,-280.72"/>
</g>
<!-- 3 -->
<g id="node3" class="node">
<title>3</title>
<ellipse fill="lightblue" stroke="black" cx="74.5" cy="-182.49" rx="22.2" ry="22.2"/>
<text text-anchor="middle" x="74.5" y="-178.79" font-family="Times New Roman,serif" font-size="14.00">∧</text>
</g>
<!-- 2&#45;&#45;3 -->
<g id="edge2" class="edge">
<title>2&#45;&#45;3</title>
<path fill="none" stroke="black" d="M146.36,-247.34C130.48,-233.23 106.38,-211.82 90.54,-197.74"/>
</g>
<!-- 7 -->
<g id="node7" class="node">
<title>7</title>
<ellipse fill="lightblue" stroke="black" cx="162.5" cy="-182.49" rx="22.2" ry="22.2"/>
<text text-anchor="middle" x="162.5" y="-178.79" font-family="Times New Roman,serif" font-size="14.00">∧</text>
</g>
<!-- 2&#45;&#45;7 -->
<g id="edge6" class="edge">
<title>2&#45;&#45;7</title>
<path fill="none" stroke="black" d="M162.5,-240.32C162.5,-229.29 162.5,-215.86 162.5,-204.83"/>
</g>
<!-- 4 -->
<g id="node4" class="node">
<title>4</title>
<ellipse fill="none" stroke="black" cx="19.5" cy="-102.29" rx="19.5" ry="19.5"/>
<text text-anchor="middle" x="19.5" y="-98.59" font-family="Times New Roman,serif" font-size="14.00">x1</text>
</g>
<!-- 3&#45;&#45;4 -->
<g id="edge3" class="edge">
<title>3&#45;&#45;4</title>
<path fill="none" stroke="black" d="M62.02,-163.75C52.45,-150.14 39.37,-131.55 30.26,-118.59"/>
</g>
<!-- 5 -->
<g id="node5" class="node">
<title>5</title>
<ellipse fill="lightgreen" stroke="black" cx="74.5" cy="-102.29" rx="18" ry="18"/>
<text text-anchor="middle" x="74.5" y="-98.59" font-family="Times New Roman,serif" font-size="14.00">¬</text>
</g>
<!-- 3&#45;&#45;5 -->
<g id="edge4" class="edge">
<title>3&#45;&#45;5</title>
<path fill="none" stroke="black" d="M74.5,-160.12C74.5,-147.64 74.5,-132.1 74.5,-120.43"/>
</g>
<!-- 6 -->
<g id="node6" class="node">
<title>6</title>
<ellipse fill="none" stroke="black" cx="74.5" cy="-22.1" rx="19.5" ry="19.5"/>
<text text-anchor="middle" x="74.5" y="-18.4" font-family="Times New Roman,serif" font-size="14.00">x2</text>
</g>
<!-- 5&#45;&#45;6 -->
<g id="edge5" class="edge">
<title>5&#45;&#45;6</title>
<path fill="none" stroke="black" d="M74.5,-83.94C74.5,-71.43 74.5,-54.57 74.5,-41.77"/>
</g>
<!-- 8 -->
<g id="node8" class="node">
<title>8</title>
<ellipse fill="none" stroke="black" cx="129.5" cy="-102.29" rx="19.5" ry="19.5"/>
<text text-anchor="middle" x="129.5" y="-98.59" font-family="Times New Roman,serif" font-size="14.00">x2</text>
</g>
<!-- 7&#45;&#45;8 -->
<g id="edge7" class="edge">
<title>7&#45;&#45;8</title>
<path fill="none" stroke="black" d="M154.17,-161.76C148.82,-149.09 141.95,-132.79 136.81,-120.62"/>
</g>
<!-- 9 -->
<g id="node9" class="node">
<title>9</title>
<ellipse fill="lightcoral" stroke="black" cx="189.5" cy="-102.29" rx="22.2" ry="22.2"/>
<text text-anchor="middle" x="189.5" y="-98.59" font-family="Times New Roman,serif" font-size="14.00">∨</text>
</g>
<!-- 7&#45;&#45;9 -->
<g id="edge8" class="edge">
<title>7&#45;&#45;9</title>
<path fill="none" stroke="black" d="M169.45,-161.35C173.48,-149.68 178.54,-135.03 182.57,-123.36"/>
</g>
<!-- 10 -->
<g id="node10" class="node">
<title>10</title>
<ellipse fill="none" stroke="black" cx="174.5" cy="-22.1" rx="19.5" ry="19.5"/>
<text text-anchor="middle" x="174.5" y="-18.4" font-family="Times New Roman,serif" font-size="14.00">x1</text>
</g>
<!-- 9&#45;&#45;10 -->
<g id="edge9" class="edge">
<title>9&#45;&#45;10</title>
<path fill="none" stroke="black" d="M185.48,-80.34C183.15,-68.21 180.25,-53.1 178.02,-41.45"/>
</g>
<!-- 11 -->
<g id="node11" class="node">
<title>11</title>
<ellipse fill="none" stroke="black" cx="234.5" cy="-22.1" rx="22.2" ry="22.2"/>
<text text-anchor="middle" x="234.5" y="-18.4" font-family="Times New Roman,serif" font-size="14.00">⊤</text>
</g>
<!-- 9&#45;&#45;11 -->
<g id="edge10" class="edge">
<title>9&#45;&#45;11</title>
<path fill="none" stroke="black" d="M200.16,-82.76C207.34,-70.3 216.75,-53.93 223.91,-41.5"/>
</g>
<!-- 13 -->
<g id="node13" class="node">
<title>13</title>
<ellipse fill="lightblue" stroke="black" cx="306.5" cy="-182.49" rx="22.2" ry="22.2"/>
<text text-anchor="middle" x="306.5" y="-178.79" font-family="Times New Roman,serif" font-size="14.00">∧</text>
</g>
<!-- 12&#45;&#45;13 -->
<g id="edge12" class="edge">
<title>12&#45;&#45;13</title>
<path fill="none" stroke="black" d="M306.5,-240.32C306.5,-229.29 306.5,-215.86 306.5,-204.83"/>
</g>
<!-- 19 -->
<g id="node19" class="node">
<title>19</title>
<ellipse fill="lightblue" stroke="black" cx="453.5" cy="-182.49" rx="22.2" ry="22.2"/>
<text text-anchor="middle" x="453.5" y="-178.79" font-family="Times New Roman,serif" font-size="14.00">∧</text>
</g>
<!-- 12&#45;&#45;19 -->
<g id="edge18" class="edge">
<title>12&#45;&#45;19</title>
<path fill="none" stroke="black" d="M325.72,-251.46C353.89,-236.48 406.1,-208.7 434.28,-193.72"/>
</g>
<!-- 14 -->
<g id="node14" class="node">
<title>14</title>
<ellipse fill="none" stroke="black" cx="249.5" cy="-102.29" rx="19.5" ry="19.5"/>
<text text-anchor="middle" x="249.5" y="-98.59" font-family="Times New Roman,serif" font-size="14.00">x4</text>
</g>
<!-- 13&#45;&#45;14 -->
<g id="edge13" class="edge">
<title>13&#45;&#45;14</title>
<path fill="none" stroke="black" d="M293.85,-164.14C283.88,-150.46 270.11,-131.57 260.57,-118.49"/>
</g>
<!-- 15 -->
<g id="node15" class="node">
<title>15</title>
<ellipse fill="none" stroke="black" cx="306.5" cy="-102.29" rx="19.5" ry="19.5"/>
<text text-anchor="middle" x="306.5" y="-98.59" font-family="Times New Roman,serif" font-size="14.00">x5</text>
</g>
<!-- 13&#45;&#45;15 -->
<g id="edge14" class="edge">
<title>13&#45;&#45;15</title>
<path fill="none" stroke="black" d="M306.5,-160.12C306.5,-148.18 306.5,-133.45 306.5,-121.97"/>
</g>
<!-- 16 -->
<g id="node16" class="node">
<title>16</title>
<ellipse fill="lightcoral" stroke="black" cx="366.5" cy="-102.29" rx="22.2" ry="22.2"/>
<text text-anchor="middle" x="366.5" y="-98.59" font-family="Times New Roman,serif" font-size="14.00">∨</text>
</g>
<!-- 13&#45;&#45;16 -->
<g id="edge15" class="edge">
<title>13&#45;&#45;16</title>
<path fill="none" stroke="black" d="M319.52,-164.52C329.58,-151.41 343.45,-133.34 353.5,-120.23"/>
</g>
<!-- 17 -->
<g id="node17" class="node">
<title>17</title>
<ellipse fill="none" stroke="black" cx="321.5" cy="-22.1" rx="19.5" ry="19.5"/>
<text text-anchor="middle" x="321.5" y="-18.4" font-family="Times New Roman,serif" font-size="14.00">x3</text>
</g>
<!-- 16&#45;&#45;17 -->
<g id="edge16" class="edge">
<title>16&#45;&#45;17</title>
<path fill="none" stroke="black" d="M355.83,-82.76C348.24,-69.58 338.14,-52.02 330.87,-39.37"/>
</g>
<!-- 18 -->
<g id="node18" class="node">
<title>18</title>
<ellipse fill="none" stroke="black" cx="381.5" cy="-22.1" rx="22.2" ry="22.2"/>
<text text-anchor="middle" x="381.5" y="-18.4" font-family="Times New Roman,serif" font-size="14.00">⊤</text>
</g>
<!-- 16&#45;&#45;18 -->
<g id="edge17" class="edge">
<title>16&#45;&#45;18</title>
<path fill="none" stroke="black" d="M370.52,-80.34C372.69,-69.03 375.36,-55.12 377.52,-43.84"/>
</g>
<!-- 20 -->
<g id="node20" class="node">
<title>20</title>
<ellipse fill="none" stroke="black" cx="426.5" cy="-102.29" rx="19.5" ry="19.5"/>
<text text-anchor="middle" x="426.5" y="-98.59" font-family="Times New Roman,serif" font-size="14.00">x3</text>
</g>
<!-- 19&#45;&#45;20 -->
<g id="edge19" class="edge">
<title>19&#45;&#45;20</title>
<path fill="none" stroke="black" d="M446.55,-161.35C442.23,-148.86 436.74,-132.97 432.6,-120.97"/>
</g>
<!-- 21 -->
<g id="node21" class="node">
<title>21</title>
<ellipse fill="lightgreen" stroke="black" cx="481.5" cy="-102.29" rx="18" ry="18"/>
<text text-anchor="middle" x="481.5" y="-98.59" font-family="Times New Roman,serif" font-size="14.00">¬</text>
</g>
<!-- 19&#45;&#45;21 -->
<g id="edge20" class="edge">
<title>19&#45;&#45;21</title>
<path fill="none" stroke="black" d="M460.71,-161.35C465.38,-148.32 471.37,-131.58 475.72,-119.43"/>
</g>
<!-- 23 -->
<g id="node23" class="node">
<title>23</title>
<ellipse fill="lightcoral" stroke="black" cx="539.5" cy="-102.29" rx="22.2" ry="22.2"/>
<text text-anchor="middle" x="539.5" y="-98.59" font-family="Times New Roman,serif" font-size="14.00">∨</text>
</g>
<!-- 19&#45;&#45;23 -->
<g id="edge22" class="edge">
<title>19&#45;&#45;23</title>
<path fill="none" stroke="black" d="M469.67,-166.78C485.05,-152.8 508.04,-131.89 523.39,-117.94"/>
</g>
<!-- 22 -->
<g id="node22" class="node">
<title>22</title>
<ellipse fill="none" stroke="black" cx="481.5" cy="-22.1" rx="19.5" ry="19.5"/>
<text text-anchor="middle" x="481.5" y="-18.4" font-family="Times New Roman,serif" font-size="14.00">x4</text>
</g>
<!-- 21&#45;&#45;22 -->
<g id="edge21" class="edge">
<title>21&#45;&#45;22</title>
<path fill="none" stroke="black" d="M481.5,-83.94C481.5,-71.43 481.5,-54.57 481.5,-41.77"/>
</g>
<!-- 24 -->
<g id="node24" class="node">
<title>24</title>
<ellipse fill="none" stroke="black" cx="538.5" cy="-22.1" rx="19.5" ry="19.5"/>
<text text-anchor="middle" x="538.5" y="-18.4" font-family="Times New Roman,serif" font-size="14.00">x5</text>
</g>
<!-- 23&#45;&#45;24 -->
<g id="edge23" class="edge">
<title>23&#45;&#45;24</title>
<path fill="none" stroke="black" d="M539.23,-79.93C539.07,-67.99 538.88,-53.25 538.74,-41.78"/>
</g>
<!-- 25 -->
<g id="node25" class="node">
<title>25</title>
<ellipse fill="none" stroke="black" cx="598.5" cy="-22.1" rx="22.2" ry="22.2"/>
<text text-anchor="middle" x="598.5" y="-18.4" font-family="Times New Roman,serif" font-size="14.00">⊤</text>
</g>
<!-- 23&#45;&#45;25 -->
<g id="edge24" class="edge">
<title>23&#45;&#45;25</title>
<path fill="none" stroke="black" d="M552.59,-83.94C562.44,-70.89 575.86,-53.11 585.64,-40.13"/>
</g>
</g>
</svg>
