<?xml version="1.0" encoding="UTF-8" standalone="no"?>
<!DOCTYPE svg PUBLIC "-//W3C//DTD SVG 1.1//EN"
 "http://www.w3.org/Graphics/SVG/1.1/DTD/svg11.dtd">
<!-- Generated by graphviz version 2.46.0 (20210118.1747)
 -->
<!-- Pages: 1 -->
<svg width="395pt" height="368pt"
 viewBox="0.00 0.00 395.00 367.78" xmlns="http://www.w3.org/2000/svg" xmlns:xlink="http://www.w3.org/1999/xlink">
<g id="graph0" class="graph" transform="scale(1 1) rotate(0) translate(4 363.78)">
<polygon fill="white" stroke="transparent" points="-4,4 -4,-363.78 391,-363.78 391,4 -4,4"/>
<!-- 1 -->
<g id="node1" class="node">
<title>1</title>
<ellipse fill="lightcoral" stroke="black" cx="147.5" cy="-337.68" rx="22.2" ry="22.2"/>
<text text-anchor="middle" x="147.5" y="-333.98" font-family="Times New Roman,serif" font-size="14.00">∨</text>
</g>
<!-- 2 -->
<g id="node2" class="node">
<title>2</title>
<ellipse fill="lightblue" stroke="black" cx="116.5" cy="-257.49" rx="22.2" ry="22.2"/>
<text text-anchor="middle" x="116.5" y="-253.79" font-family="Times New Roman,serif" font-size="14.00">∧</text>
</g>
<!-- 1&#45;&#45;2 -->
<g id="edge1" class="edge">
<title>1&#45;&#45;2</title>
<path fill="none" stroke="black" d="M139.68,-316.95C134.98,-305.1 129.02,-290.07 124.32,-278.21"/>
</g>
<!-- 9 -->
<g id="node9" class="node">
<title>9</title>
<ellipse fill="lightblue" stroke="black" cx="202.5" cy="-257.49" rx="22.2" ry="22.2"/>
<text text-anchor="middle" x="202.5" y="-253.79" font-family="Times New Roman,serif" font-size="14.00">∧</text>
</g>
<!-- 1&#45;&#45;9 -->
<g id="edge8" class="edge">
<title>1&#45;&#45;9</title>
<path fill="none" stroke="black" d="M159.98,-318.94C169.04,-306.05 181.25,-288.7 190.26,-275.89"/>
</g>
<!-- 3 -->
<g id="node3" class="node">
<title>3</title>
<ellipse fill="lightgreen" stroke="black" cx="21.5" cy="-177.29" rx="18" ry="18"/>
<text text-anchor="middle" x="21.5" y="-173.59" font-family="Times New Roman,serif" font-size="14.00">¬</text>
</g>
<!-- 2&#45;&#45;3 -->
<g id="edge2" class="edge">
<title>2&#45;&#45;3</title>
<path fill="none" stroke="black" d="M99.51,-242.51C81.05,-227.31 51.91,-203.32 34.96,-189.37"/>
</g>
<!-- 5 -->
<g id="node5" class="node">
<title>5</title>
<ellipse fill="lightgreen" stroke="black" cx="76.5" cy="-177.29" rx="18" ry="18"/>
<text text-anchor="middle" x="76.5" y="-173.59" font-family="Times New Roman,serif" font-size="14.00">¬</text>
</g>
<!-- 2&#45;&#45;5 -->
<g id="edge4" class="edge">
<title>2&#45;&#45;5</title>
<path fill="none" stroke="black" d="M106.82,-237.56C99.93,-224.09 90.79,-206.22 84.35,-193.64"/>
</g>
<!-- 7 -->
<g id="node7" class="node">
<title>7</title>
<ellipse fill="lightgreen" stroke="black" cx="131.5" cy="-177.29" rx="18" ry="18"/>
<text text-anchor="middle" x="131.5" y="-173.59" font-family="Times New Roman,serif" font-size="14.00">¬</text>
</g>
<!-- 2&#45;&#45;7 -->
<g id="edge6" class="edge">
<title>2&#45;&#45;7</title>
<path fill="none" stroke="black" d="M120.52,-235.53C122.95,-222.86 126,-206.93 128.27,-195.1"/>
</g>
<!-- 4 -->
<g id="node4" class="node">
<title>4</title>
<ellipse fill="none" stroke="black" cx="19.5" cy="-97.09" rx="19.5" ry="19.5"/>
<text text-anchor="middle" x="19.5" y="-93.39" font-family="Times New Roman,serif" font-size="14.00">x1</text>
</g>
<!-- 3&#45;&#45;4 -->
<g id="edge3" class="edge">
<title>3&#45;&#45;4</title>
<path fill="none" stroke="black" d="M21.05,-158.94C20.73,-146.43 20.3,-129.57 19.98,-116.77"/>
</g>
<!-- 6 -->
<g id="node6" class="node">
<title>6</title>
<ellipse fill="none" stroke="black" cx="76.5" cy="-97.09" rx="19.5" ry="19.5"/>
<text text-anchor="middle" x="76.5" y="-93.39" font-family="Times New Roman,serif" font-size="14.00">x2</text>
</g>
<!-- 5&#45;&#45;6 -->
<g id="edge5" class="edge">
<title>5&#45;&#45;6</title>
<path fill="none" stroke="black" d="M76.5,-158.94C76.5,-146.43 76.5,-129.57 76.5,-116.77"/>
</g>
<!-- 8 -->
<g id="node8" class="node">
<title>8</title>
<ellipse fill="none" stroke="black" cx="133.5" cy="-97.09" rx="19.5" ry="19.5"/>
<text text-anchor="middle" x="133.5" y="-93.39" font-family="Times New Roman,serif" font-size="14.00">x3</text>
</g>
<!-- 7&#45;&#45;8 -->
<g id="edge7" class="edge">
<title>7&#45;&#45;8</title>
<path fill="none" stroke="black" d="M131.94,-158.94C132.26,-146.43 132.69,-129.57 133.02,-116.77"/>
</g>
<!-- 10 -->
<g id="node10" class="node">
<title>10</title>
<ellipse fill="none" stroke="black" cx="187.5" cy="-177.29" rx="19.5" ry="19.5"/>
<text text-anchor="middle" x="187.5" y="-173.59" font-family="Times New Roman,serif" font-size="14.00">x3</text>
</g>
<!-- 9&#45;&#45;10 -->
<g id="edge9" class="edge">
<title>9&#45;&#45;10</title>
<path fill="none" stroke="black" d="M198.48,-235.53C196.15,-223.41 193.25,-208.29 191.02,-196.64"/>
</g>
<!-- 11 -->
<g id="node11" class="node">
<title>11</title>
<ellipse fill="lightcoral" stroke="black" cx="247.5" cy="-177.29" rx="22.2" ry="22.2"/>
<text text-anchor="middle" x="247.5" y="-173.59" font-family="Times New Roman,serif" font-size="14.00">∨</text>
</g>
<!-- 9&#45;&#45;11 -->
<g id="edge10" class="edge">
<title>9&#45;&#45;11</title>
<path fill="none" stroke="black" d="M213.16,-237.96C220.34,-225.49 229.75,-209.13 236.91,-196.69"/>
</g>
<!-- 15 -->
<g id="node15" class="node">
<title>15</title>
<ellipse fill="lightcoral" stroke="black" cx="309.5" cy="-177.29" rx="22.2" ry="22.2"/>
<text text-anchor="middle" x="309.5" y="-173.59" font-family="Times New Roman,serif" font-size="14.00">∨</text>
</g>
<!-- 9&#45;&#45;15 -->
<g id="edge14" class="edge">
<title>9&#45;&#45;15</title>
<path fill="none" stroke="black" d="M220.17,-243.57C239.99,-229.09 271.97,-205.72 291.8,-191.22"/>
</g>
<!-- 12 -->
<g id="node12" class="node">
<title>12</title>
<ellipse fill="none" stroke="black" cx="193.5" cy="-97.09" rx="22.2" ry="22.2"/>
<text text-anchor="middle" x="193.5" y="-93.39" font-family="Times New Roman,serif" font-size="14.00">⊤</text>
</g>
<!-- 11&#45;&#45;12 -->
<g id="edge11" class="edge">
<title>11&#45;&#45;12</title>
<path fill="none" stroke="black" d="M235.24,-158.55C226.41,-145.75 214.53,-128.55 205.7,-115.77"/>
</g>
<!-- 13 -->
<g id="node13" class="node">
<title>13</title>
<ellipse fill="lightgreen" stroke="black" cx="251.5" cy="-97.09" rx="18" ry="18"/>
<text text-anchor="middle" x="251.5" y="-93.39" font-family="Times New Roman,serif" font-size="14.00">¬</text>
</g>
<!-- 11&#45;&#45;13 -->
<g id="edge12" class="edge">
<title>11&#45;&#45;13</title>
<path fill="none" stroke="black" d="M248.59,-154.92C249.23,-142.44 250.02,-126.9 250.62,-115.23"/>
</g>
<!-- 14 -->
<g id="node14" class="node">
<title>14</title>
<ellipse fill="none" stroke="black" cx="251.5" cy="-19.5" rx="19.5" ry="19.5"/>
<text text-anchor="middle" x="251.5" y="-15.8" font-family="Times New Roman,serif" font-size="14.00">x1</text>
</g>
<!-- 13&#45;&#45;14 -->
<g id="edge13" class="edge">
<title>13&#45;&#45;14</title>
<path fill="none" stroke="black" d="M251.5,-78.94C251.5,-67.09 251.5,-51.34 251.5,-39.17"/>
</g>
<!-- 16 -->
<g id="node16" class="node">
<title>16</title>
<ellipse fill="none" stroke="black" cx="309.5" cy="-97.09" rx="22.2" ry="22.2"/>
<text text-anchor="middle" x="309.5" y="-93.39" font-family="Times New Roman,serif" font-size="14.00">⊤</text>
</g>
<!-- 15&#45;&#45;16 -->
<g id="edge15" class="edge">
<title>15&#45;&#45;16</title>
<path fill="none" stroke="black" d="M309.5,-154.92C309.5,-143.89 309.5,-130.47 309.5,-119.44"/>
</g>
<!-- 17 -->
<g id="node17" class="node">
<title>17</title>
<ellipse fill="lightgreen" stroke="black" cx="367.5" cy="-97.09" rx="18" ry="18"/>
<text text-anchor="middle" x="367.5" y="-93.39" font-family="Times New Roman,serif" font-size="14.00">¬</text>
</g>
<!-- 15&#45;&#45;17 -->
<g id="edge16" class="edge">
<title>15&#45;&#45;17</title>
<path fill="none" stroke="black" d="M322.37,-158.94C332.85,-144.81 347.45,-125.13 357.17,-112.02"/>
</g>
<!-- 18 -->
<g id="node18" class="node">
<title>18</title>
<ellipse fill="none" stroke="black" cx="367.5" cy="-19.5" rx="19.5" ry="19.5"/>
<text text-anchor="middle" x="367.5" y="-15.8" font-family="Times New Roman,serif" font-size="14.00">x2</text>
</g>
<!-- 17&#45;&#45;18 -->
<g id="edge17" class="edge">
<title>17&#45;&#45;18</title>
<path fill="none" stroke="black" d="M367.5,-78.94C367.5,-67.09 367.5,-51.34 367.5,-39.17"/>
</g>
</g>
</svg>
